<svg id="Capa_5" data-name="Capa 5" xmlns="http://www.w3.org/2000/svg" viewBox="0 0 114.24 185.95"><defs><style>.cls-1{fill:#020202;}.cls-2,.cls-5,.cls-6{fill:none;}.cls-2,.cls-3,.cls-4,.cls-5,.cls-6{stroke:#000;stroke-miterlimit:10;}.cls-2,.cls-3,.cls-4,.cls-5{stroke-linecap:round;}.cls-4{fill:#fff;}.cls-5{stroke-width:3px;}.cls-6{stroke-width:6px;}</style></defs><title>animatuImg</title><path class="cls-1" d="M1061.5,847.07a12.25,12.25,0,0,0-.66-1.6,8.09,8.09,0,0,0-3.53-3.76c.93-2.83,2.56-4.71,4.19-4.71s3.26,1.88,4.19,4.71a8.09,8.09,0,0,0-3.53,3.76A12.5,12.5,0,0,0,1061.5,847.07Z" transform="translate(-1006.1 -778.05)"/><path class="cls-1" d="M1061.5,838.5c.58,0,1.57.83,2.36,2.59a9.77,9.77,0,0,0-2.36,2.51,9.77,9.77,0,0,0-2.36-2.51c.79-1.76,1.78-2.59,2.36-2.59m0-3c-2.62,0-5,2.81-6,7.09a6.36,6.36,0,0,1,4,3.55c1.79,3.61,1.5,8.85,2,8.86h0c.49,0,.21-5.25,2-8.86a6.36,6.36,0,0,1,4-3.55c-1-4.28-3.38-7.09-6-7.09Z" transform="translate(-1006.1 -778.05)"/><path class="cls-2" d="M1072.33,825a5.91,5.91,0,0,0-.76,2.22,5.58,5.58,0,1,0,11.07,1.43,5.79,5.79,0,0,0-2.19-5.34l5.11-1.06a10.55,10.55,0,0,1,1.51,7,10.05,10.05,0,1,1-19.93-2.56c0-.21.07-.4.11-.6Z" transform="translate(-1006.1 -778.05)"/><path class="cls-3" d="M1080.86,823.27a6,6,0,1,1-10.13,3.43,5.59,5.59,0,0,1,.39-1.43Z" transform="translate(-1006.1 -778.05)"/><circle class="cls-4" cx="67.67" cy="49.72" r="2.39"/><path class="cls-2" d="M1049.89,824a5.9,5.9,0,0,1,.75,2.22,5.58,5.58,0,1,1-11.07,1.43,5.8,5.8,0,0,1,2.2-5.34l-5.11-1.06a10.55,10.55,0,0,0-1.52,7,10.05,10.05,0,1,0,19.93-2.56,5.78,5.78,0,0,0-.11-.6Z" transform="translate(-1006.1 -778.05)"/><path class="cls-3" d="M1041.35,822.27a6,6,0,1,0,10.14,3.43,6,6,0,0,0-.39-1.43Z" transform="translate(-1006.1 -778.05)"/><circle class="cls-4" cx="36.35" cy="47.72" r="2.39"/><path class="cls-5" d="M1024.5,850c6,3.68,6,42,0,42s-7.5-17-7.5-17" transform="translate(-1006.1 -778.05)"/><path class="cls-5" d="M1096.5,849c-6,3.68-6,42,0,42s5-17.5,5-17.5" transform="translate(-1006.1 -778.05)"/><path class="cls-6" d="M1013.1,827.12c3.11-8.6,8.38-17.06,9-31.42a64.71,64.71,0,0,0-.93-14,96.61,96.61,0,0,1,29,7.64,95,95,0,0,1,11.95,6.31c3.71-1.74,7.67-3.44,11.87-5a178.48,178.48,0,0,1,31.83-8.91,96.94,96.94,0,0,0-.93,13,101.31,101.31,0,0,0,7,36.78c9.65,26.36,8.79,85.14-21.56,114.48-5.24,5.07-17,16.12-32,14.87-15.95-1.33-28.23-16-26.76-18.58,1.24-2.17,11.56,5.57,26,3.71,12.84-1.64,21.61-9.92,25.27-13.38,31.75-30,18.34-120.6-3.39-124.39-4.12-.72-9.75,1.49-17.47,11.18-3.93-5.15-10.9-12.88-18.17-11.88-19.66,2.71-23.14,67-29.36,66.36C1011,873.6,1005.07,849.34,1013.1,827.12Z" transform="translate(-1006.1 -778.05)"/></svg>