<svg id="Capa_5" data-name="Capa 5" xmlns="http://www.w3.org/2000/svg" viewBox="0 0 389.97 185.95"><defs><style>.cls-1{fill:#020202;}.cls-2,.cls-5,.cls-6{fill:none;}.cls-2,.cls-3,.cls-4,.cls-5,.cls-6{stroke:#000;stroke-miterlimit:10;}.cls-2,.cls-3,.cls-4,.cls-5{stroke-linecap:round;}.cls-4{fill:#fff;}.cls-5{stroke-width:3px;}.cls-6{stroke-width:6px;}</style></defs><title>animatuCompleto</title><path class="cls-1" d="M1061.5,847.07a12.25,12.25,0,0,0-.66-1.6,8.09,8.09,0,0,0-3.53-3.76c.93-2.83,2.56-4.71,4.19-4.71s3.26,1.88,4.19,4.71a8.09,8.09,0,0,0-3.53,3.76A12.5,12.5,0,0,0,1061.5,847.07Z" transform="translate(-879.96 -778.05)"/><path class="cls-1" d="M1061.5,838.5c.58,0,1.57.83,2.36,2.59a9.77,9.77,0,0,0-2.36,2.51,9.77,9.77,0,0,0-2.36-2.51c.79-1.76,1.78-2.59,2.36-2.59m0-3c-2.62,0-5,2.81-6,7.09a6.36,6.36,0,0,1,4,3.55c1.79,3.61,1.5,8.85,2,8.86h0c.49,0,.21-5.25,2-8.86a6.36,6.36,0,0,1,4-3.55c-1-4.28-3.38-7.09-6-7.09Z" transform="translate(-879.96 -778.05)"/><path class="cls-2" d="M1072.33,825a5.91,5.91,0,0,0-.76,2.22,5.58,5.58,0,1,0,11.07,1.43,5.79,5.79,0,0,0-2.19-5.34l5.11-1.06a10.55,10.55,0,0,1,1.51,7,10.05,10.05,0,1,1-19.93-2.56c0-.21.07-.4.11-.6Z" transform="translate(-879.96 -778.05)"/><path class="cls-3" d="M1080.86,823.27a6,6,0,1,1-10.13,3.43,5.59,5.59,0,0,1,.39-1.43Z" transform="translate(-879.96 -778.05)"/><circle class="cls-4" cx="193.81" cy="49.72" r="2.39"/><path class="cls-2" d="M1049.89,824a5.9,5.9,0,0,1,.75,2.22,5.58,5.58,0,1,1-11.07,1.43,5.8,5.8,0,0,1,2.2-5.34l-5.11-1.06a10.55,10.55,0,0,0-1.52,7,10.05,10.05,0,1,0,19.93-2.56,5.78,5.78,0,0,0-.11-.6Z" transform="translate(-879.96 -778.05)"/><path class="cls-3" d="M1041.35,822.27a6,6,0,1,0,10.14,3.43,6,6,0,0,0-.39-1.43Z" transform="translate(-879.96 -778.05)"/><circle class="cls-4" cx="162.48" cy="47.72" r="2.39"/><path class="cls-5" d="M1024.5,850c6,3.68,6,42,0,42s-7.5-17-7.5-17" transform="translate(-879.96 -778.05)"/><path class="cls-5" d="M1096.5,849c-6,3.68-6,42,0,42s5-17.5,5-17.5" transform="translate(-879.96 -778.05)"/><path class="cls-6" d="M1013.1,827.12c3.11-8.6,8.38-17.06,9-31.42a64.71,64.71,0,0,0-.93-14,96.61,96.61,0,0,1,29,7.64,95,95,0,0,1,11.95,6.31c3.71-1.74,7.67-3.44,11.87-5a178.48,178.48,0,0,1,31.83-8.91,96.94,96.94,0,0,0-.93,13,101.31,101.31,0,0,0,7,36.78c9.65,26.36,8.79,85.14-21.56,114.48-5.24,5.07-17,16.12-32,14.87-15.95-1.33-28.23-16-26.76-18.58,1.24-2.17,11.56,5.57,26,3.71,12.84-1.64,21.61-9.92,25.27-13.38,31.75-30,18.34-120.6-3.39-124.39-4.12-.72-9.75,1.49-17.47,11.18-3.93-5.15-10.9-12.88-18.17-11.88-19.66,2.71-23.14,67-29.36,66.36C1011,873.6,1005.07,849.34,1013.1,827.12Z" transform="translate(-879.96 -778.05)"/><path d="M923.7,861.82q-.72-3.15-1.53-6.34T920.46,849H893.37q-.9,3.24-1.71,6.44t-1.53,6.34H880a242.88,242.88,0,0,1,9.36-32.35A246.88,246.88,0,0,1,903,798.82h7.92a242.27,242.27,0,0,1,13.64,30.65,247.29,247.29,0,0,1,9.31,32.35Zm-6.12-22.41q-2.34-7.2-5.08-14t-5.63-12.92q-2.88,6.12-5.53,12.92t-5,14Z" transform="translate(-879.96 -778.05)"/><path d="M938.82,798.82h12a245.66,245.66,0,0,1,12.6,23.4A205.27,205.27,0,0,1,973,846.7V798.82h9.9v63H967.17q-1.53-5.76-3.55-11.83t-4.37-12q-2.34-5.94-5-11.7t-5.49-11v46.53h-9.9Z" transform="translate(-879.96 -778.05)"/><path d="M988.32,798.82h9.9v63h-9.9Z" transform="translate(-879.96 -778.05)"/><path d="M1169.31,861.82q-.72-3.15-1.53-6.34t-1.71-6.44H1139q-.9,3.24-1.71,6.44t-1.53,6.34h-10.17a242.88,242.88,0,0,1,9.36-32.35,246.88,246.88,0,0,1,13.68-30.65h7.92a242.2,242.2,0,0,1,13.63,30.65,247.32,247.32,0,0,1,9.32,32.35Zm-6.12-22.41q-2.34-7.2-5.09-14t-5.62-12.92q-2.88,6.12-5.54,12.92t-5,14Z" transform="translate(-879.96 -778.05)"/><path d="M1218.81,808.45h-16.2v53.37h-9.9V808.45h-16.38v-9.63h42.48Z" transform="translate(-879.96 -778.05)"/><path d="M1224.21,798.82h9.9v38.59a29.11,29.11,0,0,0,.49,5.23,13.79,13.79,0,0,0,1.94,5,11.46,11.46,0,0,0,4,3.74,14.61,14.61,0,0,0,6.93,1.57,12,12,0,0,0,5.58-1.39,11.84,11.84,0,0,0,3.87-3.43,15.09,15.09,0,0,0,2.29-4.87,21.57,21.57,0,0,0,.77-5.81V798.82h9.9v38.52a32.21,32.21,0,0,1-1.4,9.5,23.76,23.76,0,0,1-4.23,8,20.45,20.45,0,0,1-7.11,5.58,23,23,0,0,1-10.12,2.07,23.24,23.24,0,0,1-9.86-2,20.66,20.66,0,0,1-7.15-5.35,23.07,23.07,0,0,1-4.37-8,32,32,0,0,1-1.48-9.9Z" transform="translate(-879.96 -778.05)"/></svg>